<svg width="42" height="42" viewBox="0 0 42 42" fill="none" xmlns="http://www.w3.org/2000/svg">
<circle cx="21" cy="21" r="20" stroke="#8C8C8C" stroke-dasharray="2 2"/>
<path d="M25.8721 24.8203C26.5811 24.4395 27.3926 24.2227 28.2568 24.2227H28.2598C28.3477 24.2227 28.3887 24.1172 28.3242 24.0586C27.4254 23.252 26.3987 22.6005 25.2861 22.1309C25.2744 22.125 25.2627 22.1221 25.251 22.1162C27.0703 20.7949 28.2539 18.6475 28.2539 16.2246C28.2539 12.2109 25.0078 8.95898 21.0029 8.95898C16.998 8.95898 13.7549 12.2109 13.7549 16.2246C13.7549 18.6475 14.9385 20.7949 16.7607 22.1162C16.749 22.1221 16.7373 22.125 16.7256 22.1309C15.416 22.6846 14.2412 23.4785 13.2305 24.4922C12.2256 25.4953 11.4255 26.6844 10.875 27.9932C10.3333 29.2748 10.041 30.6479 10.0137 32.0391C10.0129 32.0703 10.0184 32.1014 10.0298 32.1306C10.0412 32.1597 10.0584 32.1862 10.0802 32.2086C10.1021 32.231 10.1282 32.2488 10.157 32.2609C10.1858 32.2731 10.2168 32.2793 10.248 32.2793H12.0029C12.1289 32.2793 12.2344 32.1768 12.2373 32.0508C12.2959 29.7891 13.2012 27.6709 14.8037 26.0654C16.459 24.4043 18.6621 23.4902 21.0059 23.4902C22.667 23.4902 24.2607 23.9502 25.6348 24.8115C25.6701 24.8337 25.7106 24.8462 25.7522 24.8477C25.7939 24.8493 25.8352 24.8398 25.8721 24.8203ZM21.0059 21.2637C19.6641 21.2637 18.4014 20.7393 17.4492 19.7871C16.9807 19.3199 16.6094 18.7645 16.3564 18.1531C16.1035 17.5417 15.9741 16.8863 15.9756 16.2246C15.9756 14.8799 16.5 13.6143 17.4492 12.6621C18.3984 11.71 19.6611 11.1855 21.0059 11.1855C22.3506 11.1855 23.6103 11.71 24.5625 12.6621C25.031 13.1294 25.4024 13.6847 25.6553 14.2961C25.9082 14.9075 26.0376 15.5629 26.0361 16.2246C26.0361 17.5693 25.5117 18.835 24.5625 19.7871C23.6103 20.7393 22.3477 21.2637 21.0059 21.2637ZM31.7812 28.2363H29.3203V25.7754C29.3203 25.6465 29.2148 25.541 29.0859 25.541H27.4453C27.3164 25.541 27.2109 25.6465 27.2109 25.7754V28.2363H24.75C24.6211 28.2363 24.5156 28.3418 24.5156 28.4707V30.1113C24.5156 30.2402 24.6211 30.3457 24.75 30.3457H27.2109V32.8066C27.2109 32.9355 27.3164 33.041 27.4453 33.041H29.0859C29.2148 33.041 29.3203 32.9355 29.3203 32.8066V30.3457H31.7812C31.9102 30.3457 32.0156 30.2402 32.0156 30.1113V28.4707C32.0156 28.3418 31.9102 28.2363 31.7812 28.2363Z" fill="#62BA0A"/>
</svg>
