<svg width="28" height="28" viewBox="0 0 28 28" fill="none" xmlns="http://www.w3.org/2000/svg">
<path d="M24.5 3.55512L23.0781 4.64887L19.0312 7.82075L14.1365 7L13.8084 6.94487L13.5091 7.13737L8.53213 10.4449L4.5395 9.65212L3.5 9.4325V24.5H24.5V3.55425V3.55512ZM22.75 7.1365V11.8396L19.0575 14.7665L14.273 13.1801L13.8635 13.0436L13.5082 13.2624L8.64062 16.5174L5.25 15.1462V11.5675L8.58637 12.2238L8.94162 12.3042L9.24087 12.1135L14.1908 8.806L19.1117 9.625L19.4941 9.68012L19.796 9.43337L22.75 7.13737V7.1365ZM22.75 14.0822V22.75H5.25V17.0625L8.42188 18.3207L8.85938 18.4844L9.24262 18.2394L14.1636 14.9581L18.9761 16.5707L19.4136 16.7344L19.7969 16.4334L22.75 14.0831V14.0822Z" fill="#596152"/>
</svg>
