<svg width="28" height="28" viewBox="0 0 28 28" fill="none" xmlns="http://www.w3.org/2000/svg">
<path d="M20 17.375H21.75V21.75H20V17.375Z" fill="#596152"/>
<path d="M16.5 13H18.25V21.75H16.5V13Z" fill="#596152"/>
<path d="M9.625 21.75C8.4651 21.7486 7.35311 21.2872 6.53294 20.4671C5.71277 19.6469 5.25139 18.5349 5.25 17.375H7C7 17.8942 7.15395 18.4017 7.44239 18.8334C7.73083 19.2651 8.1408 19.6015 8.62046 19.8002C9.10011 19.9989 9.62791 20.0508 10.1371 19.9496C10.6463 19.8483 11.114 19.5983 11.4812 19.2312C11.8483 18.864 12.0983 18.3963 12.1996 17.8871C12.3008 17.3779 12.2489 16.8501 12.0502 16.3705C11.8515 15.8908 11.5151 15.4808 11.0834 15.1924C10.6517 14.904 10.1442 14.75 9.625 14.75V13C10.7853 13 11.8981 13.4609 12.7186 14.2814C13.5391 15.1019 14 16.2147 14 17.375C14 18.5353 13.5391 19.6481 12.7186 20.4686C11.8981 21.2891 10.7853 21.75 9.625 21.75Z" fill="#596152"/>
<path d="M23.3571 2H3.64286C3.20728 2.00043 2.78966 2.17366 2.48166 2.48166C2.17366 2.78966 2.00043 3.20728 2 3.64286V23.3571C2.00043 23.7927 2.17366 24.2103 2.48166 24.5183C2.78966 24.8263 3.20728 24.9996 3.64286 25H23.3571C23.7927 24.9993 24.2101 24.8261 24.5181 24.5181C24.8261 24.2101 24.9993 23.7927 25 23.3571V3.64286C24.9996 3.20728 24.8263 2.78966 24.5183 2.48166C24.2103 2.17366 23.7927 2.00043 23.3571 2ZM23.3571 9.39286H11.8571V3.64286H23.3571V9.39286ZM10.2143 3.64286V9.39286H3.64286V3.64286H10.2143ZM3.64286 23.3571V11.0357H23.3571L23.3588 23.3571H3.64286Z" fill="#596152"/>
</svg>
