<svg width="28" height="28" viewBox="0 0 28 28" fill="none" xmlns="http://www.w3.org/2000/svg">
<path d="M12.25 3.2095C12.25 2.97744 12.1578 2.75488 11.9937 2.59078C11.8296 2.42669 11.607 2.3345 11.375 2.3345C11.1429 2.3345 10.9204 2.42669 10.7563 2.59078C10.5922 2.75488 10.5 2.97744 10.5 3.2095V4.08684C10.5 4.82534 10.7286 5.51017 11.1183 6.07367C10.3066 6.35365 9.59507 6.86613 9.07233 7.54735C8.54959 8.22857 8.23869 9.04846 8.17831 9.905H7.87848C7.53376 9.90347 7.19271 9.83406 6.87482 9.70073C6.55692 9.5674 6.2684 9.37275 6.02573 9.12792C5.78306 8.88308 5.59099 8.59284 5.46049 8.27377C5.32999 7.9547 5.26361 7.61306 5.26515 7.26834L5.27215 5.53584C5.27261 5.42093 5.25043 5.30706 5.20688 5.20072C5.16333 5.09439 5.09927 4.99767 5.01834 4.91609C4.93741 4.83452 4.84121 4.76968 4.73523 4.72528C4.62924 4.68088 4.51555 4.6578 4.40065 4.65734C4.28574 4.65688 4.17187 4.67905 4.06553 4.7226C3.9592 4.76615 3.86248 4.83022 3.7809 4.91114C3.69933 4.99207 3.63449 5.08827 3.59009 5.19425C3.54569 5.30024 3.52261 5.41393 3.52215 5.52884L3.51398 7.26134C3.51152 7.83597 3.62229 8.40546 3.83996 8.93727C4.05763 9.46909 4.37794 9.95281 4.78259 10.3608C5.18724 10.7688 5.6683 11.0931 6.1983 11.3152C6.72829 11.5372 7.29685 11.6527 7.87148 11.655H8.16665V13.4167H3.20831C2.97625 13.4167 2.75369 13.5089 2.58959 13.673C2.4255 13.837 2.33331 14.0596 2.33331 14.2917C2.33331 14.5237 2.4255 14.7463 2.58959 14.9104C2.75369 15.0745 2.97625 15.1667 3.20831 15.1667H8.16665V17.4907H7.87148C7.29695 17.493 6.72849 17.6084 6.19857 17.8304C5.66864 18.0524 5.18764 18.3766 4.783 18.7844C4.37837 19.1923 4.05804 19.6759 3.8403 20.2076C3.62256 20.7393 3.51168 21.3086 3.51398 21.8832L3.52215 23.6168C3.52307 23.8489 3.61615 24.0711 3.7809 24.2345C3.94565 24.398 4.16858 24.4893 4.40065 24.4883C4.63271 24.4874 4.8549 24.3943 5.01834 24.2296C5.18178 24.0648 5.27307 23.8419 5.27215 23.6098L5.26398 21.8762C5.2626 21.5314 5.32913 21.1898 5.45977 20.8708C5.59042 20.5518 5.78261 20.2617 6.02539 20.0169C6.26817 19.7722 6.55678 19.5777 6.87473 19.4445C7.19268 19.3113 7.53376 19.242 7.87848 19.2407H8.43031C8.80144 20.4274 9.54191 21.4646 10.5438 22.201C11.5457 22.9374 12.7566 23.3346 14 23.3346C15.2434 23.3346 16.4543 22.9374 17.4562 22.201C18.458 21.4646 19.1985 20.4274 19.5696 19.2407H20.1215C20.4662 19.2422 20.8072 19.3116 21.1251 19.4449C21.443 19.5783 21.7316 19.7729 21.9742 20.0178C22.2169 20.2626 22.409 20.5528 22.5395 20.8719C22.67 21.191 22.7363 21.5326 22.7348 21.8773L22.7278 23.6098C22.7269 23.8419 22.8182 24.0648 22.9816 24.2296C23.1451 24.3943 23.3672 24.4874 23.5993 24.4883C23.8314 24.4893 24.0543 24.398 24.2191 24.2345C24.3838 24.0711 24.4769 23.8489 24.4778 23.6168L24.4848 21.8832C24.4895 20.723 24.0331 19.6086 23.2162 18.7849C22.3993 17.9611 21.2886 17.4956 20.1285 17.4907H19.8333V15.1667H24.7928C25.0249 15.1667 25.2474 15.0745 25.4115 14.9104C25.5756 14.7463 25.6678 14.5237 25.6678 14.2917C25.6678 14.0596 25.5756 13.837 25.4115 13.673C25.2474 13.5089 25.0249 13.4167 24.7928 13.4167H19.8333V11.655H20.1285C20.7031 11.6527 21.2717 11.5372 21.8017 11.3152C22.3317 11.0931 22.8127 10.7688 23.2174 10.3608C23.622 9.95281 23.9423 9.46909 24.16 8.93727C24.3777 8.40546 24.4884 7.83597 24.486 7.26134L24.4766 5.53C24.4757 5.29794 24.3826 5.07575 24.2179 4.91231C24.0531 4.74887 23.8302 4.65757 23.5981 4.6585C23.3661 4.65943 23.1439 4.75251 22.9805 4.91726C22.817 5.08201 22.7257 5.30494 22.7266 5.537L22.7336 7.27067C22.7364 7.96666 22.4627 8.63528 21.9726 9.1295C21.4826 9.62372 20.8163 9.90308 20.1203 9.90617H19.8216C19.7613 9.04962 19.4504 8.22974 18.9276 7.54852C18.4049 6.8673 17.6934 6.35482 16.8816 6.07484C17.2701 5.51017 17.4988 4.8265 17.4988 4.088V3.21067C17.4988 2.97861 17.4066 2.75605 17.2425 2.59195C17.0784 2.42786 16.8559 2.33567 16.6238 2.33567C16.3917 2.33567 16.1692 2.42786 16.0051 2.59195C15.841 2.75605 15.7488 2.97861 15.7488 3.21067V4.088C15.7488 4.55213 15.5644 4.99725 15.2362 5.32544C14.9081 5.65363 14.4629 5.838 13.9988 5.838C13.5347 5.838 13.0896 5.65363 12.7614 5.32544C12.4332 4.99725 12.2488 4.55213 12.2488 4.088V3.21067L12.25 3.2095ZM9.91665 10.2118C9.91665 9.51564 10.1932 8.84796 10.6855 8.35568C11.1778 7.8634 11.8455 7.58684 12.5416 7.58684H15.4583C16.1545 7.58684 16.8222 7.8634 17.3145 8.35568C17.8068 8.84796 18.0833 9.51564 18.0833 10.2118V17.5C18.0833 18.0362 17.9777 18.5672 17.7725 19.0626C17.5673 19.558 17.2665 20.0082 16.8873 20.3874C16.5082 20.7665 16.058 21.0673 15.5626 21.2725C15.0672 21.4777 14.5362 21.5833 14 21.5833C13.4637 21.5833 12.9328 21.4777 12.4374 21.2725C11.9419 21.0673 11.4918 20.7665 11.1126 20.3874C10.7335 20.0082 10.4327 19.558 10.2275 19.0626C10.0223 18.5672 9.91665 18.0362 9.91665 17.5V10.2118Z" fill="#596152"/>
</svg>
