<svg width="28" height="28" viewBox="0 0 28 28" fill="none" xmlns="http://www.w3.org/2000/svg">
<path d="M14.5834 11.9583C14.5834 11.7263 14.6755 11.5037 14.8396 11.3396C15.0037 11.1755 15.2263 11.0833 15.4584 11.0833H19.5417C19.7737 11.0833 19.9963 11.1755 20.1604 11.3396C20.3245 11.5037 20.4167 11.7263 20.4167 11.9583C20.4167 12.1904 20.3245 12.413 20.1604 12.577C19.9963 12.7411 19.7737 12.8333 19.5417 12.8333H15.4584C15.2263 12.8333 15.0037 12.7411 14.8396 12.577C14.6755 12.413 14.5834 12.1904 14.5834 11.9583ZM15.4584 17.5C15.2263 17.5 15.0037 17.5922 14.8396 17.7563C14.6755 17.9204 14.5834 18.1429 14.5834 18.375C14.5834 18.6071 14.6755 18.8296 14.8396 18.9937C15.0037 19.1578 15.2263 19.25 15.4584 19.25H19.5417C19.7737 19.25 19.9963 19.1578 20.1604 18.9937C20.3245 18.8296 20.4167 18.6071 20.4167 18.375C20.4167 18.1429 20.3245 17.9204 20.1604 17.7563C19.9963 17.5922 19.7737 17.5 19.5417 17.5H15.4584ZM12.5767 11.41C12.6627 11.3299 12.7316 11.2333 12.7794 11.126C12.8273 11.0186 12.853 10.9028 12.855 10.7853C12.8571 10.6678 12.8355 10.5511 12.7915 10.4421C12.7475 10.3332 12.682 10.2342 12.5989 10.1511C12.5158 10.068 12.4168 10.0025 12.3079 9.95852C12.1989 9.91451 12.0822 9.8929 11.9647 9.89497C11.8473 9.89704 11.7314 9.92276 11.6241 9.97058C11.5167 10.0184 11.4201 10.0874 11.34 10.1733L9.62502 11.8883L9.07669 11.34C8.91082 11.1854 8.69143 11.1013 8.46474 11.1053C8.23806 11.1093 8.02178 11.2011 7.86146 11.3614C7.70115 11.5218 7.60932 11.738 7.60532 11.9647C7.60132 12.1914 7.68546 12.4108 7.84002 12.5767L9.00669 13.7433C9.17075 13.9072 9.39314 13.9992 9.62502 13.9992C9.8569 13.9992 10.0793 13.9072 10.2434 13.7433L12.5767 11.41ZM12.5767 16.59C12.7405 16.7541 12.8326 16.9765 12.8326 17.2083C12.8326 17.4402 12.7405 17.6626 12.5767 17.8267L10.2434 20.16C10.0793 20.3239 9.8569 20.4159 9.62502 20.4159C9.39314 20.4159 9.17075 20.3239 9.00669 20.16L7.84002 18.9933C7.75405 18.9132 7.6851 18.8166 7.63728 18.7093C7.58945 18.602 7.56374 18.4861 7.56166 18.3686C7.55959 18.2511 7.5812 18.1344 7.62521 18.0255C7.66922 17.9165 7.73472 17.8175 7.81781 17.7345C7.9009 17.6514 7.99987 17.5859 8.10882 17.5419C8.21778 17.4978 8.33448 17.4762 8.45196 17.4783C8.56945 17.4804 8.68532 17.5061 8.79265 17.5539C8.89998 17.6017 8.99658 17.6707 9.07669 17.7567L9.62502 18.305L11.34 16.59C11.5041 16.4261 11.7265 16.3341 11.9584 16.3341C12.1902 16.3341 12.4126 16.4261 12.5767 16.59ZM18.6597 4.76466C18.6108 4.10377 18.3137 3.48583 17.8282 3.03487C17.3426 2.5839 16.7044 2.33329 16.0417 2.33333H11.9584C11.3127 2.33335 10.6897 2.57134 10.2084 3.0018C9.72715 3.43225 9.42143 4.02498 9.34969 4.66666H7.29169C6.59549 4.66666 5.92781 4.94322 5.43553 5.43551C4.94325 5.92779 4.66669 6.59547 4.66669 7.29166V23.0417C4.66669 23.7379 4.94325 24.4055 5.43553 24.8978C5.92781 25.3901 6.59549 25.6667 7.29169 25.6667H20.7084C21.0531 25.6667 21.3944 25.5988 21.7129 25.4668C22.0314 25.3349 22.3208 25.1416 22.5645 24.8978C22.8083 24.6541 23.0016 24.3647 23.1335 24.0462C23.2655 23.7277 23.3334 23.3864 23.3334 23.0417V7.29166C23.3334 6.94694 23.2655 6.6056 23.1335 6.28712C23.0016 5.96864 22.8083 5.67926 22.5645 5.43551C22.3208 5.19175 22.0314 4.9984 21.7129 4.86648C21.3944 4.73456 21.0531 4.66666 20.7084 4.66666H18.6504L18.6597 4.76466ZM18.6597 4.77866L18.6667 4.95833C18.6667 4.89766 18.6644 4.83816 18.6609 4.77866H18.6597ZM11.9584 7.58333H16.0417C16.9517 7.58333 17.7532 7.12016 18.2245 6.41666H20.7084C20.9404 6.41666 21.163 6.50885 21.3271 6.67294C21.4912 6.83704 21.5834 7.0596 21.5834 7.29166V23.0417C21.5834 23.2737 21.4912 23.4963 21.3271 23.6604C21.163 23.8245 20.9404 23.9167 20.7084 23.9167H7.29169C7.05962 23.9167 6.83706 23.8245 6.67297 23.6604C6.50887 23.4963 6.41669 23.2737 6.41669 23.0417V7.29166C6.41669 7.0596 6.50887 6.83704 6.67297 6.67294C6.83706 6.50885 7.05962 6.41666 7.29169 6.41666H9.77552C10.2469 7.12016 11.0484 7.58333 11.9584 7.58333ZM11.9584 4.08333H16.0417C16.2738 4.08333 16.4963 4.17552 16.6604 4.33961C16.8245 4.5037 16.9167 4.72626 16.9167 4.95833C16.9167 5.19039 16.8245 5.41295 16.6604 5.57705C16.4963 5.74114 16.2738 5.83333 16.0417 5.83333H11.9584C11.7263 5.83333 11.5037 5.74114 11.3396 5.57705C11.1755 5.41295 11.0834 5.19039 11.0834 4.95833C11.0834 4.72626 11.1755 4.5037 11.3396 4.33961C11.5037 4.17552 11.7263 4.08333 11.9584 4.08333Z" fill="#596152"/>
</svg>
