<svg width="28" height="28" viewBox="0 0 28 28" fill="none" xmlns="http://www.w3.org/2000/svg">
<path d="M7.875 6.125C4.98575 6.125 2.625 8.48575 2.625 11.375C2.62606 12.2018 2.82237 13.0166 3.19794 13.7531C3.5735 14.4897 4.11771 15.1271 4.78625 15.6135C2.47625 16.7597 0.875 19.131 0.875 21.875H2.625C2.625 18.9648 4.96475 16.625 7.875 16.625C10.7852 16.625 13.125 18.9648 13.125 21.875H14.875C14.875 18.9648 17.2148 16.625 20.125 16.625C23.0352 16.625 25.375 18.9648 25.375 21.875H27.125C27.125 19.131 25.5238 16.7597 23.2138 15.6135C23.8824 15.1272 24.4267 14.4898 24.8023 13.7532C25.1778 13.0167 25.3741 12.2018 25.375 11.375C25.375 8.48575 23.0142 6.125 20.125 6.125C17.2358 6.125 14.875 8.48575 14.875 11.375C14.8761 12.2018 15.0724 13.0166 15.4479 13.7531C15.8235 14.4897 16.3677 15.1271 17.0362 15.6135C15.7571 16.241 14.6985 17.2417 14 18.4835C13.3015 17.2417 12.2429 16.241 10.9637 15.6135C11.6324 15.1272 12.1767 14.4898 12.5523 13.7532C12.9278 13.0167 13.1241 12.2018 13.125 11.375C13.125 8.48575 10.7642 6.125 7.875 6.125ZM7.875 7.875C9.8175 7.875 11.375 9.4325 11.375 11.375C11.375 13.3175 9.8175 14.875 7.875 14.875C5.9325 14.875 4.375 13.3175 4.375 11.375C4.375 9.4325 5.9325 7.875 7.875 7.875ZM20.125 7.875C22.0675 7.875 23.625 9.4325 23.625 11.375C23.625 13.3175 22.0675 14.875 20.125 14.875C18.1825 14.875 16.625 13.3175 16.625 11.375C16.625 9.4325 18.1825 7.875 20.125 7.875Z" fill="#596152"/>
</svg>
