<svg width="903" height="560" viewBox="0 0 903 560" fill="none" xmlns="http://www.w3.org/2000/svg">
<path d="M80.96 438.08C87.5733 439.573 92.8 442.88 96.64 448C100.587 453.013 102.56 458.773 102.56 465.28C102.56 474.88 99.2533 482.4 92.64 487.84C86.0267 493.28 76.7467 496 64.8 496H8.96V383.2H63.04C74.56 383.2 83.5733 385.76 90.08 390.88C96.6933 396 100 403.2 100 412.48C100 419.093 98.24 424.64 94.72 429.12C91.3067 433.493 86.72 436.48 80.96 438.08ZM40.32 428H56.16C64.0533 428 68 424.747 68 418.24C68 411.52 64.0533 408.16 56.16 408.16H40.32V428ZM58.56 470.72C66.4533 470.72 70.4 467.413 70.4 460.8C70.4 457.387 69.3333 454.773 67.2 452.96C65.1733 451.147 62.24 450.24 58.4 450.24H40.32V470.72H58.56ZM147.024 383.2V448.64C147.024 454.72 148.41 459.413 151.184 462.72C154.064 466.027 158.384 467.68 164.144 467.68C169.904 467.68 174.224 466.027 177.104 462.72C180.09 459.307 181.584 454.613 181.584 448.64V383.2H212.944V448.64C212.944 458.987 210.757 467.84 206.384 475.2C202.01 482.453 196.037 487.947 188.464 491.68C180.997 495.307 172.677 497.12 163.504 497.12C154.33 497.12 146.117 495.307 138.864 491.68C131.717 487.947 126.064 482.453 121.904 475.2C117.85 467.947 115.824 459.093 115.824 448.64V383.2H147.024ZM302.21 420.32C300.397 417.333 297.89 415.04 294.69 413.44C291.597 411.84 287.917 411.04 283.65 411.04C275.757 411.04 269.517 413.6 264.93 418.72C260.45 423.84 258.21 430.72 258.21 439.36C258.21 449.067 260.61 456.48 265.41 461.6C270.317 466.613 277.41 469.12 286.69 469.12C297.677 469.12 305.517 464.16 310.21 454.24H278.69V431.68H337.25V462.08C334.797 468.053 331.17 473.653 326.37 478.88C321.677 484.107 315.703 488.427 308.45 491.84C301.197 495.147 292.93 496.8 283.65 496.8C272.343 496.8 262.317 494.4 253.57 489.6C244.93 484.693 238.21 477.92 233.41 469.28C228.717 460.533 226.37 450.56 226.37 439.36C226.37 428.267 228.717 418.4 233.41 409.76C238.21 401.013 244.93 394.24 253.57 389.44C262.21 384.533 272.183 382.08 283.49 382.08C297.677 382.08 309.41 385.493 318.69 392.32C327.97 399.147 333.73 408.48 335.97 420.32H302.21Z" fill="#4B4B4B"/>
<path d="M436.264 383.2V408.16H406.184V496H374.824V408.16H345.064V383.2H436.264ZM504.986 496L482.586 454.4H479.226V496H447.866V383.2H497.306C506.373 383.2 514.053 384.8 520.346 388C526.64 391.093 531.386 395.413 534.586 400.96C537.786 406.4 539.386 412.533 539.386 419.36C539.386 427.04 537.253 433.813 532.986 439.68C528.826 445.44 522.693 449.547 514.586 452L540.026 496H504.986ZM479.226 432.96H494.746C499.013 432.96 502.213 431.947 504.346 429.92C506.48 427.893 507.546 424.96 507.546 421.12C507.546 417.493 506.426 414.667 504.186 412.64C502.053 410.507 498.906 409.44 494.746 409.44H479.226V432.96ZM625.008 477.6H585.008L578.928 496H545.968L587.088 383.2H623.248L664.208 496H631.088L625.008 477.6ZM617.168 453.6L605.008 417.12L593.008 453.6H617.168ZM670.589 439.36C670.589 428.267 672.882 418.4 677.469 409.76C682.162 401.013 688.775 394.24 697.309 389.44C705.842 384.533 715.655 382.08 726.749 382.08C740.829 382.08 752.669 385.867 762.269 393.44C771.869 400.907 778.055 411.093 780.829 424H747.069C745.042 419.733 742.215 416.48 738.589 414.24C735.069 412 730.962 410.88 726.269 410.88C719.015 410.88 713.202 413.493 708.829 418.72C704.562 423.84 702.429 430.72 702.429 439.36C702.429 448.107 704.562 455.093 708.829 460.32C713.202 465.44 719.015 468 726.269 468C730.962 468 735.069 466.88 738.589 464.64C742.215 462.4 745.042 459.147 747.069 454.88H780.829C778.055 467.787 771.869 478.027 762.269 485.6C752.669 493.067 740.829 496.8 726.749 496.8C715.655 496.8 705.842 494.4 697.309 489.6C688.775 484.693 682.162 477.92 677.469 469.28C672.882 460.533 670.589 450.56 670.589 439.36ZM862.399 496L827.039 446.56V496H795.679V383.2H827.039V431.84L862.079 383.2H898.239L856.799 437.92L900.319 496H862.399Z" fill="#62BA0A"/>
<g clip-path="url(#clip0)">
<path fill-rule="evenodd" clip-rule="evenodd" d="M388 81.2069C357.252 101.737 337 136.753 337 176.5C337 239.737 388.263 291 451.5 291C514.737 291 566 239.737 566 176.5C566 113.263 514.737 62 451.5 62C439.108 62 427.176 63.9685 416 67.6098V123.842C426.134 116.997 438.35 113 451.5 113C486.57 113 515 141.43 515 176.5C515 211.57 486.57 240 451.5 240C416.43 240 388 211.57 388 176.5C388 175.327 388.032 174.162 388.095 173.005H388V81.2069Z" fill="#43493D"/>
<path fill-rule="evenodd" clip-rule="evenodd" d="M421.919 232.695C433.144 238.616 446.248 241.239 459.789 239.457C494.559 234.879 519.035 202.982 514.457 168.212C514.337 167.301 514.198 166.397 514.041 165.5L565.472 165.5C567.123 182.493 564.948 199.034 559.63 214.236L559.5 214.5C540 265 467.5 256.5 421.5 233L421.919 232.695Z" fill="#62BA0A"/>
<path d="M337 0H388V184L337 179.839V0Z" fill="#82E51E"/>
<path fill-rule="evenodd" clip-rule="evenodd" d="M451.5 291C388.263 291 337 239.737 337 176.5C337 136.753 357.252 101.737 388 81.2069V173.005V176.5V184C388 243.76 409.595 286.423 460.465 290.654C457.507 290.883 454.517 291 451.5 291Z" fill="#62BA0A"/>
<circle cx="441.5" cy="25.5" r="25.5" fill="#62BA0A"/>
<circle cx="503.5" cy="25.5" r="25.5" fill="#62BA0A"/>
</g>
<defs>
<clipPath id="clip0">
<rect width="239" height="291" fill="white" transform="translate(337)"/>
</clipPath>
</defs>
</svg>
