<svg width="1591" height="345" viewBox="0 0 1591 345" fill="none" xmlns="http://www.w3.org/2000/svg">
<path fill-rule="evenodd" clip-rule="evenodd" d="M51 97.2069C20.252 117.737 0 152.753 0 192.5C0 255.737 51.2634 307 114.5 307C177.737 307 229 255.737 229 192.5C229 129.263 177.737 78 114.5 78C102.108 78 90.1765 79.9685 79 83.6098V139.842C89.134 132.997 101.35 129 114.5 129C149.57 129 178 157.43 178 192.5C178 227.57 149.57 256 114.5 256C79.4299 256 51 227.57 51 192.5C51 191.327 51.0318 190.162 51.0946 189.005H51V97.2069Z" fill="#43493D"/>
<path fill-rule="evenodd" clip-rule="evenodd" d="M84.9186 248.695C96.1438 254.616 109.248 257.239 122.789 255.457C157.559 250.879 182.035 218.982 177.457 184.212C177.337 183.301 177.198 182.397 177.041 181.5L228.472 181.5C230.123 198.493 227.948 215.034 222.63 230.236L222.5 230.5C203 281 130.5 272.5 84.5 249L84.9186 248.695Z" fill="#62BA0A"/>
<path d="M0 16H51V200L0 195.839V16Z" fill="#82E51E"/>
<path fill-rule="evenodd" clip-rule="evenodd" d="M114.5 307C51.2634 307 0 255.737 0 192.5C0 152.753 20.252 117.737 51 97.2069V189.005V192.5V200C51 259.76 72.5946 302.423 123.465 306.654C120.507 306.883 117.517 307 114.5 307Z" fill="#62BA0A"/>
<circle cx="104.5" cy="41.5" r="25.5" fill="#62BA0A"/>
<circle cx="166.5" cy="41.5" r="25.5" fill="#62BA0A"/>
<path d="M409.38 169.74C418.887 171.887 426.4 176.64 431.92 184C437.593 191.207 440.43 199.487 440.43 208.84C440.43 222.64 435.677 233.45 426.17 241.27C416.663 249.09 403.323 253 386.15 253H305.88V90.85H383.62C400.18 90.85 413.137 94.53 422.49 101.89C431.997 109.25 436.75 119.6 436.75 132.94C436.75 142.447 434.22 150.42 429.16 156.86C424.253 163.147 417.66 167.44 409.38 169.74ZM350.96 155.25H373.73C385.077 155.25 390.75 150.573 390.75 141.22C390.75 131.56 385.077 126.73 373.73 126.73H350.96V155.25ZM377.18 216.66C388.527 216.66 394.2 211.907 394.2 202.4C394.2 197.493 392.667 193.737 389.6 191.13C386.687 188.523 382.47 187.22 376.95 187.22H350.96V216.66H377.18ZM504.347 90.85V184.92C504.347 193.66 506.34 200.407 510.327 205.16C514.467 209.913 520.677 212.29 528.957 212.29C537.237 212.29 543.447 209.913 547.587 205.16C551.88 200.253 554.027 193.507 554.027 184.92V90.85H599.107V184.92C599.107 199.793 595.963 212.52 589.677 223.1C583.39 233.527 574.803 241.423 563.917 246.79C553.183 252.003 541.223 254.61 528.037 254.61C514.85 254.61 503.043 252.003 492.617 246.79C482.343 241.423 474.217 233.527 468.237 223.1C462.41 212.673 459.497 199.947 459.497 184.92V90.85H504.347ZM727.427 144.21C724.82 139.917 721.217 136.62 716.617 134.32C712.17 132.02 706.88 130.87 700.747 130.87C689.4 130.87 680.43 134.55 673.837 141.91C667.397 149.27 664.177 159.16 664.177 171.58C664.177 185.533 667.627 196.19 674.527 203.55C681.58 210.757 691.777 214.36 705.117 214.36C720.91 214.36 732.18 207.23 738.927 192.97H693.617V160.54H777.797V204.24C774.27 212.827 769.057 220.877 762.157 228.39C755.41 235.903 746.824 242.113 736.397 247.02C725.97 251.773 714.087 254.15 700.747 254.15C684.494 254.15 670.08 250.7 657.507 243.8C645.087 236.747 635.427 227.01 628.527 214.59C621.78 202.017 618.407 187.68 618.407 171.58C618.407 155.633 621.78 141.45 628.527 129.03C635.427 116.457 645.087 106.72 657.507 99.82C669.927 92.7667 684.264 89.24 700.517 89.24C720.91 89.24 737.777 94.1467 751.117 103.96C764.457 113.773 772.737 127.19 775.957 144.21H727.427Z" fill="#4B4B4B"/>
<path d="M920.129 90.85V126.73H876.889V253H831.809V126.73H789.029V90.85H920.129ZM1018.92 253L986.718 193.2H981.888V253H936.808V90.85H1007.88C1020.91 90.85 1031.95 93.15 1041 97.75C1050.04 102.197 1056.87 108.407 1061.47 116.38C1066.07 124.2 1068.37 133.017 1068.37 142.83C1068.37 153.87 1065.3 163.607 1059.17 172.04C1053.19 180.32 1044.37 186.223 1032.72 189.75L1069.29 253H1018.92ZM981.888 162.38H1004.2C1010.33 162.38 1014.93 160.923 1018 158.01C1021.06 155.097 1022.6 150.88 1022.6 145.36C1022.6 140.147 1020.99 136.083 1017.77 133.17C1014.7 130.103 1010.18 128.57 1004.2 128.57H981.888V162.38ZM1191.45 226.55H1133.95L1125.21 253H1077.83L1136.94 90.85H1188.92L1247.8 253H1200.19L1191.45 226.55ZM1180.18 192.05L1162.7 139.61L1145.45 192.05H1180.18ZM1256.97 171.58C1256.97 155.633 1260.27 141.45 1266.86 129.03C1273.61 116.457 1283.11 106.72 1295.38 99.82C1307.65 92.7667 1321.75 89.24 1337.7 89.24C1357.94 89.24 1374.96 94.6833 1388.76 105.57C1402.56 116.303 1411.45 130.947 1415.44 149.5H1366.91C1364 143.367 1359.93 138.69 1354.72 135.47C1349.66 132.25 1343.76 130.64 1337.01 130.64C1326.58 130.64 1318.23 134.397 1311.94 141.91C1305.81 149.27 1302.74 159.16 1302.74 171.58C1302.74 184.153 1305.81 194.197 1311.94 201.71C1318.23 209.07 1326.58 212.75 1337.01 212.75C1343.76 212.75 1349.66 211.14 1354.72 207.92C1359.93 204.7 1364 200.023 1366.91 193.89H1415.44C1411.45 212.443 1402.56 227.163 1388.76 238.05C1374.96 248.783 1357.94 254.15 1337.7 254.15C1321.75 254.15 1307.65 250.7 1295.38 243.8C1283.11 236.747 1273.61 227.01 1266.86 214.59C1260.27 202.017 1256.97 187.68 1256.97 171.58ZM1532.7 253L1481.87 181.93V253H1436.79V90.85H1481.87V160.77L1532.24 90.85H1584.22L1524.65 169.51L1587.21 253H1532.7Z" fill="#62BA0A"/>
</svg>
