<svg width="239" height="291" viewBox="0 0 239 291" fill="none" xmlns="http://www.w3.org/2000/svg">
<g clip-path="url(#clip0)">
<path fill-rule="evenodd" clip-rule="evenodd" d="M51 81.2069C20.252 101.737 0 136.753 0 176.5C0 239.737 51.2634 291 114.5 291C177.737 291 229 239.737 229 176.5C229 113.263 177.737 62 114.5 62C102.108 62 90.1765 63.9685 79 67.6098V123.842C89.134 116.997 101.35 113 114.5 113C149.57 113 178 141.43 178 176.5C178 211.57 149.57 240 114.5 240C79.4299 240 51 211.57 51 176.5C51 175.327 51.0318 174.162 51.0946 173.005H51V81.2069Z" fill="#43493D"/>
<path fill-rule="evenodd" clip-rule="evenodd" d="M84.9186 232.695C96.1438 238.616 109.248 241.239 122.789 239.457C157.559 234.879 182.035 202.982 177.457 168.212C177.337 167.301 177.198 166.397 177.041 165.5L228.472 165.5C230.123 182.493 227.948 199.034 222.63 214.236L222.5 214.5C203 265 130.5 256.5 84.5 233L84.9186 232.695Z" fill="#62BA0A"/>
<path d="M0 0H51V184L0 179.839V0Z" fill="#82E51E"/>
<path fill-rule="evenodd" clip-rule="evenodd" d="M114.5 291C51.2634 291 0 239.737 0 176.5C0 136.753 20.252 101.737 51 81.2069V173.005V176.5V184C51 243.76 72.5946 286.423 123.465 290.654C120.507 290.883 117.517 291 114.5 291Z" fill="#62BA0A"/>
<circle cx="104.5" cy="25.5" r="25.5" fill="#62BA0A"/>
<circle cx="166.5" cy="25.5" r="25.5" fill="#62BA0A"/>
</g>
<defs>
<clipPath id="clip0">
<rect width="239" height="291" fill="white"/>
</clipPath>
</defs>
</svg>
