<svg width="1535" height="291" viewBox="0 0 1535 291" fill="none" xmlns="http://www.w3.org/2000/svg">
<path fill-rule="evenodd" clip-rule="evenodd" d="M51 81.2069C20.252 101.737 0 136.753 0 176.5C0 239.737 51.2634 291 114.5 291C177.737 291 229 239.737 229 176.5C229 113.263 177.737 62 114.5 62C102.108 62 90.1765 63.9685 79 67.6098V123.842C89.134 116.997 101.35 113 114.5 113C149.57 113 178 141.43 178 176.5C178 211.57 149.57 240 114.5 240C79.4299 240 51 211.57 51 176.5C51 175.327 51.0318 174.162 51.0946 173.005H51V81.2069Z" fill="#43493D"/>
<path fill-rule="evenodd" clip-rule="evenodd" d="M84.9186 232.695C96.1438 238.616 109.248 241.239 122.789 239.457C157.559 234.879 182.035 202.982 177.457 168.212C177.337 167.301 177.198 166.397 177.041 165.5L228.472 165.5C230.123 182.493 227.948 199.034 222.63 214.236L222.5 214.5C203 265 130.5 256.5 84.5 233L84.9186 232.695Z" fill="#62BA0A"/>
<path d="M0 0H51V184L0 179.839V0Z" fill="#82E51E"/>
<path fill-rule="evenodd" clip-rule="evenodd" d="M114.5 291C51.2634 291 0 239.737 0 176.5C0 136.753 20.252 101.737 51 81.2069V173.005V176.5V184C51 243.76 72.5946 286.423 123.465 290.654C120.507 290.883 117.517 291 114.5 291Z" fill="#62BA0A"/>
<circle cx="104.5" cy="25.5" r="25.5" fill="#62BA0A"/>
<circle cx="166.5" cy="25.5" r="25.5" fill="#62BA0A"/>
<path d="M404.32 142.36C413.413 144.413 420.6 148.96 425.88 156C431.307 162.893 434.02 170.813 434.02 179.76C434.02 192.96 429.473 203.3 420.38 210.78C411.287 218.26 398.527 222 382.1 222H305.32V66.9H379.68C395.52 66.9 407.913 70.42 416.86 77.46C425.953 84.5 430.5 94.4 430.5 107.16C430.5 116.253 428.08 123.88 423.24 130.04C418.547 136.053 412.24 140.16 404.32 142.36ZM348.44 128.5H370.22C381.073 128.5 386.5 124.027 386.5 115.08C386.5 105.84 381.073 101.22 370.22 101.22H348.44V128.5ZM373.52 187.24C384.373 187.24 389.8 182.693 389.8 173.6C389.8 168.907 388.333 165.313 385.4 162.82C382.613 160.327 378.58 159.08 373.3 159.08H348.44V187.24H373.52ZM495.158 66.9V156.88C495.158 165.24 497.064 171.693 500.878 176.24C504.838 180.787 510.778 183.06 518.698 183.06C526.618 183.06 532.558 180.787 536.518 176.24C540.624 171.547 542.678 165.093 542.678 156.88V66.9H585.798V156.88C585.798 171.107 582.791 183.28 576.778 193.4C570.764 203.373 562.551 210.927 552.138 216.06C541.871 221.047 530.431 223.54 517.818 223.54C505.204 223.54 493.911 221.047 483.938 216.06C474.111 210.927 466.338 203.373 460.618 193.4C455.044 183.427 452.258 171.253 452.258 156.88V66.9H495.158ZM708.539 117.94C706.045 113.833 702.599 110.68 698.199 108.48C693.945 106.28 688.885 105.18 683.019 105.18C672.165 105.18 663.585 108.7 657.279 115.74C651.119 122.78 648.039 132.24 648.039 144.12C648.039 157.467 651.339 167.66 657.939 174.7C664.685 181.593 674.439 185.04 687.199 185.04C702.305 185.04 713.085 178.22 719.539 164.58H676.199V133.56H756.719V175.36C753.345 183.573 748.359 191.273 741.759 198.46C735.305 205.647 727.092 211.587 717.119 216.28C707.145 220.827 695.779 223.1 683.019 223.1C667.472 223.1 653.685 219.8 641.659 213.2C629.779 206.453 620.539 197.14 613.939 185.26C607.485 173.233 604.259 159.52 604.259 144.12C604.259 128.867 607.485 115.3 613.939 103.42C620.539 91.3933 629.779 82.08 641.659 75.48C653.539 68.7333 667.252 65.36 682.799 65.36C702.305 65.36 718.439 70.0533 731.199 79.44C743.959 88.8267 751.879 101.66 754.959 117.94H708.539Z" fill="#4B4B4B"/>
<path d="M892.863 66.9V101.22H851.503V222H808.383V101.22H767.463V66.9H892.863ZM987.356 222L956.556 164.8H951.936V222H908.816V66.9H976.796C989.263 66.9 999.823 69.1 1008.48 73.5C1017.13 77.7533 1023.66 83.6933 1028.06 91.32C1032.46 98.8 1034.66 107.233 1034.66 116.62C1034.66 127.18 1031.72 136.493 1025.86 144.56C1020.14 152.48 1011.7 158.127 1000.56 161.5L1035.54 222H987.356ZM951.936 135.32H973.276C979.143 135.32 983.543 133.927 986.476 131.14C989.409 128.353 990.876 124.32 990.876 119.04C990.876 114.053 989.336 110.167 986.256 107.38C983.323 104.447 978.996 102.98 973.276 102.98H951.936V135.32ZM1152.39 196.7H1097.39L1089.03 222H1043.71L1100.25 66.9H1149.97L1206.29 222H1160.75L1152.39 196.7ZM1141.61 163.7L1124.89 113.54L1108.39 163.7H1141.61ZM1215.06 144.12C1215.06 128.867 1218.21 115.3 1224.52 103.42C1230.97 91.3933 1240.07 82.08 1251.8 75.48C1263.53 68.7333 1277.03 65.36 1292.28 65.36C1311.64 65.36 1327.92 70.5667 1341.12 80.98C1354.32 91.2467 1362.83 105.253 1366.64 123H1320.22C1317.43 117.133 1313.55 112.66 1308.56 109.58C1303.72 106.5 1298.07 104.96 1291.62 104.96C1281.65 104.96 1273.65 108.553 1267.64 115.74C1261.77 122.78 1258.84 132.24 1258.84 144.12C1258.84 156.147 1261.77 165.753 1267.64 172.94C1273.65 179.98 1281.65 183.5 1291.62 183.5C1298.07 183.5 1303.72 181.96 1308.56 178.88C1313.55 175.8 1317.43 171.327 1320.22 165.46H1366.64C1362.83 183.207 1354.32 197.287 1341.12 207.7C1327.92 217.967 1311.64 223.1 1292.28 223.1C1277.03 223.1 1263.53 219.8 1251.8 213.2C1240.07 206.453 1230.97 197.14 1224.52 185.26C1218.21 173.233 1215.06 159.52 1215.06 144.12ZM1478.8 222L1430.18 154.02V222H1387.06V66.9H1430.18V133.78L1478.36 66.9H1528.08L1471.1 142.14L1530.94 222H1478.8Z" fill="#62BA0A"/>
</svg>
