<svg width="808" height="638" viewBox="0 0 808 638" fill="none" xmlns="http://www.w3.org/2000/svg">
<circle cx="489" cy="319" r="319" fill="#FFF626"/>
<circle cx="85" cy="154" r="85" fill="#FFE926"/>
<circle cx="85" cy="470" r="85" fill="#FFE926"/>
<path fill-rule="evenodd" clip-rule="evenodd" d="M490.217 637.998L264 411.781C321.675 354.436 401.156 319 488.913 319C607.019 319 710.134 383.185 765.28 478.576C710.302 573.555 607.752 637.559 490.217 637.998Z" fill="#FFC226"/>
<path fill-rule="evenodd" clip-rule="evenodd" d="M489 319C401.243 319 321.763 283.564 264.087 226.22L490.304 0.00268555C607.834 0.473145 710.37 64.502 765.323 159.5C710.167 254.849 607.075 319 489 319Z" fill="#FFDC26"/>
<path d="M489.905 318.453C401.842 230.389 259.063 230.389 171 318.453L489.905 637.358C577.968 549.295 577.968 406.516 489.905 318.453Z" fill="#6CB920"/>
<path d="M489.905 318.905C401.842 406.968 259.063 406.968 171 318.905L489.905 -1.11736e-05C577.968 88.0632 577.968 230.842 489.905 318.905Z" fill="#A3EE29"/>
<path fill-rule="evenodd" clip-rule="evenodd" d="M179.794 327.247C268.325 406.875 404.716 404.094 489.905 318.905C489.981 318.83 490.056 318.754 490.131 318.679C490.056 318.603 489.981 318.528 489.905 318.453C404.716 233.264 268.325 230.483 179.794 310.111L171.226 318.679L179.794 327.247Z" fill="#91D622"/>
</svg>
